<?xml version="1.0" encoding="UTF-8" standalone="no"?>
<svg xmlns="http://www.w3.org/2000/svg" width="64" height="64" viewBox="0 0 64 64">
  <rect width="64" height="64" fill="#5294e2" rx="12" ry="12"/>
  <path fill="#fff" d="M22 14c-4.4 0-8 3.6-8 8v20c0 4.4 3.6 8 8 8h20c4.4 0
  8-3.6 8-8V22c0-4.4-3.6-8-8-8H22zm0 4h20c2.21 0 4 1.79 4 4v20c0 2.21-1.79
  4-4 4H22c-2.21 0-4-1.79-4-4V22c0-2.21 1.79-4 4-4z"/>
  <circle cx="32" cy="32" r="10" fill="#fff"/>
  <path fill="#5294e2" d="M32 24a8 8 0 000 16 8 8 0 000-16zm0 2a6 6 0 010 12
  6 6 0 010-12z"/>
</svg>